<svg width="22" height="24" viewBox="0 0 22 24" fill="none" xmlns="http://www.w3.org/2000/svg">
<path d="M21.3337 17.7421C20.766 18.966 20.4951 19.5129 19.7712 20.591C18.7582 22.1014 17.3233 23.9842 15.5525 23.9973C13.9796 24.0103 13.5733 22.9921 11.4353 23.0103C9.29991 23.0207 8.8546 24.0155 7.27909 23.9973C5.50827 23.9842 4.15412 22.2863 3.1385 20.7811C0.299978 16.5546 0.000502229 11.6015 1.7557 8.96612C2.99527 7.09895 4.9588 6.0026 6.80253 6.0026C8.68012 6.0026 9.86241 7.01041 11.4119 7.01041C12.9223 7.01041 13.8389 6 16.0108 6C17.654 6 19.391 6.87499 20.6306 8.38279C16.5707 10.5573 17.2295 16.2239 21.3337 17.7421Z" fill="white"/>
<path d="M14.641 4.04684C15.4874 2.99737 16.128 1.51301 15.8962 0C14.516 0.0911453 12.9014 0.945305 11.9587 2.04946C11.1046 3.05727 10.3963 4.55205 10.6723 5.99735C12.1775 6.04422 13.7348 5.17704 14.641 4.04684Z" fill="white"/>
<path d="M19.0993 9.6145C13.2765 15.9999 7.94316 9.99992 0.760925 14.5624C1.01092 16.578 1.78175 18.7629 3.13851 20.7811C4.15152 22.2863 5.50829 23.9842 7.27911 23.9998C8.85461 24.0154 9.29992 23.0206 11.4353 23.0102C13.5733 22.9946 13.9796 24.0102 15.5525 23.9972C17.3233 23.9842 18.7582 22.1014 19.7712 20.591C20.4951 19.5129 20.766 18.966 21.3337 17.742C17.8624 16.4582 16.8702 12.2082 19.0993 9.6145Z" fill="white"/>
</svg>
