<svg width="24" height="24" viewBox="0 0 24 24" fill="none" xmlns="http://www.w3.org/2000/svg">
<path d="M22.2 12C22.2 17.6391 17.639 22.2 12 22.2C6.36092 22.2 1.79999 17.6391 1.79999 12C1.79999 6.36099 6.36092 1.80005 12 1.80005C17.639 1.80005 22.2 6.36099 22.2 12Z" fill="black"/>
<path d="M10.2 22.2V18.9C10.2 18.7195 10.3195 18.6 10.5 18.6C10.6805 18.6 10.8 18.7195 10.8 18.9V22.2H12V18.3C12 18.1195 12.1195 18 12.3 18C12.4805 18 12.6 18.1195 12.6 18.3V22.2H13.8V18.9C13.8 18.7195 13.9195 18.6 14.1 18.6C14.2805 18.6 14.4 18.7195 14.4 18.9V22.2H15.4805C15.6 22.0195 15.6 21.8391 15.6 21.5391V19.2C15.6 17.8805 14.4609 16.0805 13.0195 16.0805H11.5195C10.1391 16.0805 8.93907 17.9391 8.93907 19.2V21.5391C8.93907 21.7805 9.00001 22.0195 9.06095 22.2H10.2ZM21.6609 13.4391C21.6609 13.4391 20.8805 13.2 20.2195 13.2H20.1609C19.5 13.2 18.4195 13.3805 18.4195 13.3805C18.361 13.3805 18.361 13.3805 18.361 13.3195C18.361 13.2609 18.361 13.2609 18.4195 13.2609C18.4805 13.2609 19.6195 13.0805 20.2805 13.0805C20.9391 13.0805 21.7195 13.3195 21.7805 13.3195C21.8391 13.3195 21.8391 13.3805 21.8391 13.4391C21.7195 13.3805 21.7195 13.4391 21.6609 13.4391ZM21.4805 13.9195C21.4805 13.9195 20.6391 13.6805 19.9195 13.6805C19.3805 13.6805 18.1195 13.8 18.061 13.8C18 13.8 18 13.8 18 13.7391C18 13.6805 18 13.6805 18.061 13.6805C18.1195 13.6805 19.3805 13.5609 19.9195 13.5609C20.7 13.5609 21.4805 13.8 21.4805 13.8C21.5391 13.8 21.5391 13.8609 21.5391 13.9195C21.5391 13.8609 21.5391 13.9195 21.4805 13.9195ZM2.28048 13.4391C2.21954 13.4391 2.21954 13.4391 2.21954 13.3805C2.21954 13.3195 2.21954 13.3195 2.28048 13.2609C2.76095 13.1391 3.71954 12.9609 4.26095 12.9609C4.73907 12.9609 6.36095 13.0805 6.41954 13.0805C6.48048 13.0805 6.48048 13.1391 6.48048 13.1391C6.48048 13.2 6.41954 13.2 6.41954 13.2C6.41954 13.2 4.80001 13.0805 4.31954 13.0805C3.66095 13.2 2.76095 13.3195 2.28048 13.4391ZM2.51954 14.3391C2.51954 14.3391 2.46095 14.3391 2.46095 14.2805C2.46095 14.2195 2.46095 14.2195 2.46095 14.1609C2.51954 14.1609 3.30001 13.6805 4.20001 13.5609C4.98048 13.4391 6.60001 13.6195 6.71954 13.6195C6.78048 13.6195 6.78048 13.6805 6.78048 13.6805C6.78048 13.7391 6.71954 13.7391 6.71954 13.7391C6.71954 13.7391 5.03907 13.5609 4.26095 13.6805C3.36095 13.8609 2.51954 14.3391 2.51954 14.3391Z" fill="white"/>
<path d="M6.11951 11.7C6.11951 9.06091 8.88044 6.59998 12.3 6.59998C15.7195 6.59998 18.4804 8.99998 18.4804 11.7C18.4804 14.4 16.5 16.2 12.3 16.2C8.09998 16.2 6.11951 14.339 6.11951 11.7Z" fill="white"/>
<path d="M14.761 7.38047C14.761 7.38047 15.7805 6 17.6391 6C18.361 6.71953 17.8805 8.88047 17.6391 9.48047L14.761 7.38047ZM9.8391 7.38047C9.8391 7.38047 8.81957 6 6.96098 6C6.2391 6.71953 6.71957 8.88047 6.96098 9.48047L9.8391 7.38047ZM9.66098 19.1391C9.66098 19.1391 8.28051 19.1391 7.98051 19.1391C7.26098 19.1391 6.60004 18.8391 6.30004 18.2391C5.9391 17.5805 5.6391 16.8609 4.7391 16.2609C4.56098 16.1391 4.68051 16.0195 4.98051 16.0195C5.28051 16.0805 5.81957 16.1391 6.2391 16.6805C6.66098 17.2195 7.1391 17.8805 7.91957 17.8805C8.70004 17.8805 9.5391 17.8805 10.0196 17.3391L9.66098 19.1391Z" fill="white"/>
<path d="M12 0C5.4 0 0 5.4 0 12C0 18.6 5.4 24 12 24C18.6 24 24 18.6 24 12C24 5.4 18.6 0 12 0ZM12 21.6C6.71953 21.6 2.4 17.2805 2.4 12C2.4 6.71953 6.71953 2.4 12 2.4C17.2805 2.4 21.6 6.71953 21.6 12C21.6 17.2805 17.2805 21.6 12 21.6Z" fill="white"/>
</svg>
